<?xml version="1.0" encoding="UTF-8"?>
<svg version="1.1" xmlns="http://www.w3.org/2000/svg" width="500" height="500">
<path d="M0 0 C165 0 330 0 500 0 C500 165 500 330 500 500 C335 500 170 500 0 500 C0 335 0 170 0 0 Z " fill="#FEFEFE" transform="translate(0,0)"/>
<path d="M0 0 C0.66 0.33 1.32 0.66 2 1 C1.30209028 4.16138934 0.1963687 6.99105699 -1.03515625 9.98046875 C-3.30858118 16.17501139 -3.56503729 21.76695704 -3.4375 28.3125 C-3.44458984 29.35728516 -3.45167969 30.40207031 -3.45898438 31.47851562 C-3.38836252 40.02376029 -1.25753677 44.76954555 4.1875 51.375 C5.26064453 52.68597656 5.26064453 52.68597656 6.35546875 54.0234375 C6.89816406 54.67570312 7.44085938 55.32796875 8 56 C7.72285156 55.4534375 7.44570312 54.906875 7.16015625 54.34375 C5.87525658 51.7479931 4.64827004 49.13116593 3.4375 46.5 C3.00308594 45.5615625 2.56867188 44.623125 2.12109375 43.65625 C-0.39747576 37.68890761 -0.07672238 32.44468018 0 26 C3.63 26.66 7.26 27.32 11 28 C11.78375 26.700625 12.5675 25.40125 13.375 24.0625 C20.2209088 13.88960748 30.19484134 6.12684992 42.234375 3.21875 C43.14703125 3.1465625 44.0596875 3.074375 45 3 C45.99 3.99 45.99 3.99 47 5 C45.90300781 5.60328125 44.80601562 6.2065625 43.67578125 6.828125 C42.22121872 7.6351726 40.76679917 8.44247792 39.3125 9.25 C38.59126953 9.64574219 37.87003906 10.04148438 37.12695312 10.44921875 C27.56955488 15.77343147 20.2351773 22.9242344 16 33.25 C14.99121468 37.03294496 14.68204674 40.10507257 15 44 C15.33 44.33 15.66 44.66 16 45 C16.48919922 43.24623047 16.48919922 43.24623047 16.98828125 41.45703125 C17.42930796 39.908746 17.87073538 38.36057486 18.3125 36.8125 C18.63250977 35.65911133 18.63250977 35.65911133 18.95898438 34.48242188 C20.1669412 30.28161679 21.37720299 26.57146827 24 23 C26.1875 22.1875 26.1875 22.1875 28 22 C30.41685712 26.22949995 31.34833144 29.12335991 31 34 C31.50789063 33.72285156 32.01578125 33.44570312 32.5390625 33.16015625 C33.22742188 32.79792969 33.91578125 32.43570313 34.625 32.0625 C35.29789062 31.70285156 35.97078125 31.34320313 36.6640625 30.97265625 C42.02825708 28.73907021 47.65784429 28.81758644 53.375 28.8125 C54.09171875 28.80025391 54.8084375 28.78800781 55.546875 28.77539062 C60.67460427 28.76150688 65.06844728 29.59178009 70 31 C70 31.66 70 32.32 70 33 C63.36490788 33.69192767 56.98290373 33.97722461 50.3125 33.6875 C41.50465072 33.61537841 37.39510153 36.75922127 31.25 42.625 C30.5075 43.40875 29.765 44.1925 29 45 C27.7315625 45.928125 27.7315625 45.928125 26.4375 46.875 C23.23896685 49.6634648 21.84627057 52.17069807 20 56 C20 57.32 20 58.64 20 60 C20.47050781 59.24074219 20.94101563 58.48148438 21.42578125 57.69921875 C22.04839844 56.70535156 22.67101562 55.71148437 23.3125 54.6875 C23.92738281 53.70136719 24.54226562 52.71523437 25.17578125 51.69921875 C28.00576305 47.51181527 30.36300863 45.64622753 34.9375 43.5 C37.55679058 42.26739267 39.82548056 41.13580903 42.11328125 39.35546875 C44.75104822 37.46042706 46.83820235 37.78442289 50 38 C50.07442057 41.86986958 50.04702186 45.2735915 49 49 C50.7325 49.61875 50.7325 49.61875 52.5 50.25 C54.00324302 50.82492452 55.50320782 51.40848419 57 52 C57.97066406 52.38285156 57.97066406 52.38285156 58.9609375 52.7734375 C67.0203702 56.35906266 75.01875945 63.03751889 79 71 C78.505 72.485 78.505 72.485 78 74 C77.10796875 73.37351562 76.2159375 72.74703125 75.296875 72.1015625 C74.11468035 71.27590274 72.93238328 70.45038961 71.75 69.625 C71.16347656 69.2125 70.57695312 68.8 69.97265625 68.375 C67.07004918 66.35295912 64.23052285 64.45533455 61 63 C60.86271484 63.88945312 60.86271484 63.88945312 60.72265625 64.796875 C59.82767887 67.52534657 58.66093699 68.47125041 56.4375 70.25 C55.79683594 70.77078125 55.15617187 71.2915625 54.49609375 71.828125 C54.00238281 72.21484375 53.50867188 72.6015625 53 73 C53.433125 74.13695312 53.86625 75.27390625 54.3125 76.4453125 C57.75633916 85.84865962 60.87861913 94.84963153 59 105 C57.46484375 106.87890625 57.46484375 106.87890625 56 108 C55.79246094 106.86304688 55.58492188 105.72609375 55.37109375 104.5546875 C52.94357359 92.08908007 49.86755992 79.76119714 40 71 C37.60226644 69.40370208 37.60226644 69.40370208 35.1875 68.1875 C34.39730469 67.76855469 33.60710937 67.34960938 32.79296875 66.91796875 C32.20128906 66.61503906 31.60960937 66.31210938 31 66 C30.67 66.33 30.34 66.66 30 67 C30.66386719 67.44730469 31.32773438 67.89460938 32.01171875 68.35546875 C47.88149395 79.22105206 47.88149395 79.22105206 49.75 88.875 C49.8325 89.90625 49.915 90.9375 50 92 C45.71 92 41.42 92 37 92 C36.62875 93.9490625 36.62875 93.9490625 36.25 95.9375 C33.51160018 108.07013255 26.89061402 116.58285063 18 125 C17.01 124.34 16.02 123.68 15 123 C15.45890625 122.443125 15.9178125 121.88625 16.390625 121.3125 C19.43870158 117.52161484 22.21376382 113.90495199 24.3125 109.5 C26 106 26 106 28 105 C30.77410365 98.37297462 30.58596174 91.07462632 30 84 C29.11685196 81.83180125 29.11685196 81.83180125 28 80 C27.30269194 77.6756398 26.63087848 75.34326294 26 73 C26.10828125 74.19882813 26.10828125 74.19882813 26.21875 75.421875 C27.99675676 96.46162162 27.99675676 96.46162162 25 103 C21.08597051 101.73058503 19.20927127 100.48832306 17 97 C14.01958679 98.40610917 11.38762355 100.05268907 8.6875 101.9375 C0.58695064 107.31594917 -5.36956213 108.42696523 -15 108 C-11.27226089 103.66519905 -6.71295202 101.87906058 -1.57617188 99.73242188 C2.83450947 97.79915433 5.74144818 95.65851847 9 92 C9.721875 91.195625 10.44375 90.39125 11.1875 89.5625 C13.15935321 86.77470753 14.05674198 84.26512391 15 81 C15.33 80.34 15.66 79.68 16 79 C16.66 79 17.32 79 18 79 C18 76.03 18 73.06 18 70 C17.50371094 71.07378906 17.00742188 72.14757812 16.49609375 73.25390625 C9.60166336 87.8165968 9.60166336 87.8165968 3 93 C1.9171875 93.99 1.9171875 93.99 0.8125 95 C-1 96 -1 96 -5 95 C-5 91.7 -5 88.4 -5 85 C-5.7528125 85.05800781 -6.505625 85.11601562 -7.28125 85.17578125 C-14.14098789 85.46715361 -20.04719574 84.7680345 -26.5625 82.75 C-27.24054688 82.54544189 -27.91859375 82.34088379 -28.6171875 82.13012695 C-32.66064073 80.79058114 -35.25753909 79.26583132 -38 76 C-31.66323172 75.74652927 -31.66323172 75.74652927 -28.4140625 76.98828125 C-23.73956838 78.37351463 -19.34884189 78.3294067 -14.5 78.3125 C-13.11361328 78.33666992 -13.11361328 78.33666992 -11.69921875 78.36132812 C-6.30882018 78.36518392 -2.71808065 77.86870953 2 75 C3.485 74.5359375 3.485 74.5359375 5 74.0625 C8.47406286 72.83210274 11.10462704 71.27493589 14 69 C14 68.01 14 67.02 14 66 C13.26136719 66.39832031 12.52273437 66.79664063 11.76171875 67.20703125 C0.6786003 72.99503847 -8.46424178 75.59069018 -21 75 C-20.690625 74.13375 -20.38125 73.2675 -20.0625 72.375 C-19.711875 71.26125 -19.36125 70.1475 -19 69 C-18.62875 68.030625 -18.2575 67.06125 -17.875 66.0625 C-17.66195424 63.00494109 -17.66195424 63.00494109 -19.51171875 61.41796875 C-20.93502862 60.26034339 -22.36523899 59.11117106 -23.80078125 57.96875 C-30.68973644 51.80172794 -35.53585434 41.0189211 -36.2421875 31.859375 C-36.24894145 29.22533352 -36.18293 26.62707803 -36 24 C-35.34 24 -34.68 24 -34 24 C-33.731875 24.94359375 -33.46375 25.8871875 -33.1875 26.859375 C-29.15938307 40.31342639 -22.69081133 52.4870808 -10.21875 59.86328125 C-1.9755899 64.08644954 5.86151365 64.38673845 15 64 C15 63.34 15 62.68 15 62 C13.39125 62.0928125 13.39125 62.0928125 11.75 62.1875 C0.16106911 62.12607457 -10.27908228 57.72542137 -18.625 49.75 C-21 47 -21 47 -21 45 C-18.35541621 43.67770811 -16.32238699 43.90322806 -13.375 43.9375 C-11.87066406 43.95103516 -11.87066406 43.95103516 -10.3359375 43.96484375 C-9.56507812 43.97644531 -8.79421875 43.98804688 -8 44 C-8.16008545 43.43482666 -8.3201709 42.86965332 -8.48510742 42.28735352 C-11.51110324 28.84470067 -9.30693885 14.93332807 -2.25 3.3125 C-1.51061583 2.20119668 -0.76482479 1.09395021 0 0 Z " fill="#943112" transform="translate(108,158)"/>
<path d="M0 0 C0.07442057 3.86986958 0.04702186 7.2735915 -1 11 C0.155 11.4125 1.31 11.825 2.5 12.25 C4.00324302 12.82492452 5.50320782 13.40848419 7 14 C7.64710938 14.25523437 8.29421875 14.51046875 8.9609375 14.7734375 C17.0203702 18.35906266 25.01875945 25.03751889 29 33 C28.67 33.99 28.34 34.98 28 36 C27.10796875 35.37351563 26.2159375 34.74703125 25.296875 34.1015625 C24.11468035 33.27590274 22.93238328 32.45038961 21.75 31.625 C21.16347656 31.2125 20.57695312 30.8 19.97265625 30.375 C17.07004918 28.35295912 14.23052285 26.45533455 11 25 C10.86271484 25.88945312 10.86271484 25.88945312 10.72265625 26.796875 C9.82767887 29.52534657 8.66093699 30.47125041 6.4375 32.25 C5.47650391 33.03117187 5.47650391 33.03117187 4.49609375 33.828125 C4.00238281 34.21484375 3.50867188 34.6015625 3 35 C3.433125 36.13695312 3.86625 37.27390625 4.3125 38.4453125 C7.75633916 47.84865962 10.87861913 56.84963153 9 67 C7.46484375 68.87890625 7.46484375 68.87890625 6 70 C5.79246094 68.86304688 5.58492187 67.72609375 5.37109375 66.5546875 C2.78338203 53.26647718 -0.6026147 39.98039944 -12.03515625 31.48828125 C-18.1385318 27.94855863 -24.02806624 26.79038843 -31 26 C-30.34624519 22.26299617 -28.66713162 19.60409649 -26.625 16.4375 C-26.01914063 15.48746094 -25.41328125 14.53742188 -24.7890625 13.55859375 C-21.94483286 9.49097276 -19.56178257 7.6109416 -15.0625 5.5 C-12.44320942 4.26739267 -10.17451944 3.13580903 -7.88671875 1.35546875 C-5.24895178 -0.53957294 -3.16179765 -0.21557711 0 0 Z " fill="#199876" transform="translate(158,196)"/>
<path d="M0 0 C22.59541985 0 22.59541985 0 27.7421875 4.53515625 C31.48487727 9.58133453 32.22920531 12.5528751 32.3125 18.75 C32.34150391 19.45382813 32.37050781 20.15765625 32.40039062 20.8828125 C32.46279656 26.04810357 31.38255529 28.89827079 28 33 C18.78737148 40.10140115 13.01430177 38 0 38 C0 25.46 0 12.92 0 0 Z " fill="#034CAD" transform="translate(328,203)"/>
<path d="M0 0 C5.84803691 -0.66962255 8.62368106 1.2970695 13.0625 4.6875 C13.9606543 5.34008789 13.9606543 5.34008789 14.87695312 6.00585938 C21.56228978 10.94846862 28.1089585 16.3962856 29.75 24.875 C29.8325 25.90625 29.915 26.9375 30 28 C25.71 28 21.42 28 17 28 C16.7525 29.299375 16.505 30.59875 16.25 31.9375 C13.51160018 44.07013255 6.89061402 52.58285063 -2 61 C-2.99 60.34 -3.98 59.68 -5 59 C-4.31164062 58.1646875 -4.31164062 58.1646875 -3.609375 57.3125 C-0.56129842 53.52161484 2.21376382 49.90495199 4.3125 45.5 C6 42 6 42 8 41 C10.77410365 34.37297462 10.58596174 27.07462632 10 20 C9.11685196 17.83180125 9.11685196 17.83180125 8 16 C7.30269194 13.6756398 6.63087848 11.34326294 6 9 C6.10828125 10.19882813 6.10828125 10.19882813 6.21875 11.421875 C7.99675676 32.46162162 7.99675676 32.46162162 5 39 C1.08597051 37.73058503 -0.79072873 36.48832306 -3 33 C-5.98041321 34.40610917 -8.61237645 36.05268907 -11.3125 37.9375 C-19.41304936 43.31594917 -25.36956213 44.42696523 -35 44 C-31.27226089 39.66519905 -26.71295202 37.87906058 -21.57617188 35.73242188 C-17.16549053 33.79915433 -14.25855182 31.65851847 -11 28 C-9.9171875 26.7934375 -9.9171875 26.7934375 -8.8125 25.5625 C-6.84064679 22.77470753 -5.94325802 20.26512391 -5 17 C-4.67 16.34 -4.34 15.68 -4 15 C-3.34 15 -2.68 15 -2 15 C-2.02320313 14.25234375 -2.04640625 13.5046875 -2.0703125 12.734375 C-2.08835938 11.74953125 -2.10640625 10.7646875 -2.125 9.75 C-2.14820313 8.77546875 -2.17140625 7.8009375 -2.1953125 6.796875 C-1.99862781 3.9803502 -1.44568916 2.39050964 0 0 Z " fill="#677CF1" transform="translate(128,222)"/>
<path d="M0 0 C2.31 0 4.62 0 7 0 C9.00616752 8.2921591 10.70834692 16.56626517 12 25 C12.66 25 13.32 25 14 25 C14.12375 23.85402344 14.2475 22.70804688 14.375 21.52734375 C14.92798419 17.11028521 15.89218061 12.86934857 17 8.5625 C17.17789063 7.84384766 17.35578125 7.12519531 17.5390625 6.38476562 C18.86850111 1.13149889 18.86850111 1.13149889 20 0 C22.31 0 24.62 0 27 0 C28.98 7.92 30.96 15.84 33 24 C34.29585061 20.76037347 35.29566071 18.16630861 36.03515625 14.86328125 C36.28942383 13.75049805 36.28942383 13.75049805 36.54882812 12.61523438 C36.8030957 11.47538086 36.8030957 11.47538086 37.0625 10.3125 C38.87386191 2.25227618 38.87386191 2.25227618 40 0 C42.31 0 44.62 0 47 0 C45.67149163 8.68381181 43.89577801 17.20278584 41.875 25.75 C41.59785156 26.9359375 41.32070312 28.121875 41.03515625 29.34375 C40.36015133 32.22997794 39.68172086 35.11535239 39 38 C36.03 38 33.06 38 30 38 C29.73445313 37.13117188 29.46890625 36.26234375 29.1953125 35.3671875 C28.66550781 33.63855469 28.66550781 33.63855469 28.125 31.875 C27.77695313 30.73804688 27.42890625 29.60109375 27.0703125 28.4296875 C26.37210714 26.1923725 25.64165876 23.96479197 24.875 21.75 C23.99778523 18.99303928 23.83112072 16.87094768 24 14 C23.34 14 22.68 14 22 14 C21.9175 15.175625 21.835 16.35125 21.75 17.5625 C20.99961829 24.55112966 18.90996856 31.25736681 17 38 C14.03 38 11.06 38 8 38 C3.213554 20.08393534 3.213554 20.08393534 1.1875 11.6875 C0.95417969 10.72199219 0.72085938 9.75648438 0.48046875 8.76171875 C-0.03620193 5.7919125 -0.08443412 3.00852094 0 0 Z " fill="#0B52B0" transform="translate(209,203)"/>
<path d="M0 0 C2.64 0 5.28 0 8 0 C8.33 4.29 8.66 8.58 9 13 C9.99 12.34 10.98 11.68 12 11 C16.50282411 10.27482608 19.99285654 10.39999964 23.9375 12.75 C28.36642592 17.58155555 28.37045138 21.70312781 28.25390625 28.08203125 C27.85927722 32.6172295 26.56693345 35.56991663 23.2109375 38.6328125 C20.55436742 40.27556785 18.97403575 40.37263054 15.875 40.3125 C15.00617188 40.30863281 14.13734375 40.30476563 13.2421875 40.30078125 C11 40 11 40 9 38 C8.67 38.66 8.34 39.32 8 40 C5.36 40 2.72 40 0 40 C0 26.8 0 13.6 0 0 Z " fill="#0F54B1" transform="translate(292,201)"/>
<path d="M0 0 C3.25204941 1.79194559 4.50298243 3.12430237 6.3125 6.3125 C7 9 7 9 7 16 C0.4 16 -6.2 16 -13 16 C-12.34 17.98 -11.68 19.96 -11 22 C-7.37 22 -3.74 22 0 22 C0 21.34 0 20.68 0 20 C2.16874252 20.50603992 3.99967627 20.99983813 6 22 C4.53284672 26.6459854 4.53284672 26.6459854 2.2890625 28.13671875 C-2.31401003 29.87268979 -7.17795876 29.63821134 -12 29 C-15.98348877 27.09187847 -18.36014992 24.05570063 -20 20 C-20.6842501 14.73286554 -20.63405953 10.31508642 -18.3125 5.5 C-12.89311231 -0.3587975 -7.78647014 -1.05380799 0 0 Z " fill="#0A51B0" transform="translate(386,212)"/>
<path d="M0 0 C0.07442057 3.86986958 0.04702186 7.2735915 -1 11 C0.155 11.4125 1.31 11.825 2.5 12.25 C4.00324302 12.82492452 5.50320782 13.40848419 7 14 C7.64710938 14.25523437 8.29421875 14.51046875 8.9609375 14.7734375 C17.0203702 18.35906266 25.01875945 25.03751889 29 33 C28.67 33.99 28.34 34.98 28 36 C27.18917969 35.40832031 26.37835938 34.81664062 25.54296875 34.20703125 C19.39837034 29.79643403 13.47296936 25.96600873 6.4375 23.0703125 C4 22 4 22 1.8125 20.39453125 C-2.39971118 18.30597654 -6.36261629 18.52553535 -11 18.5625 C-11.88945312 18.54251953 -12.77890625 18.52253906 -13.6953125 18.50195312 C-19.20677388 18.50606616 -21.87696194 19.05656398 -26 23 C-26.99 23 -27.98 23 -29 23 C-27.33359705 16.33438819 -24.1144324 11.00567644 -18.30078125 7.26171875 C-16.41460597 6.24686076 -14.51022814 5.26480339 -12.5859375 4.32421875 C-9.98184664 3.09184882 -9.98184664 3.09184882 -7.8671875 1.34375 C-5.24290213 -0.54485704 -3.1461518 -0.21451035 0 0 Z " fill="#368C07" transform="translate(158,196)"/>
<path d="M0 0 C3.68137204 1.56654129 6.19896612 3.39793224 8 7 C8 9.97 8 12.94 8 16 C1.73 16 -4.54 16 -11 16 C-10.01 17.98 -9.02 19.96 -8 22 C-1.68731397 22.37552165 -1.68731397 22.37552165 4 20 C4.99 20.66 5.98 21.32 7 22 C6.6449979 24.57376521 6.23494708 25.77007555 4.35546875 27.609375 C1.28936774 29.41954409 -0.89266762 29.43340193 -4.4375 29.4375 C-5.54996094 29.45683594 -6.66242188 29.47617188 -7.80859375 29.49609375 C-11.69854634 28.89141324 -13.27598277 27.81049397 -16 25 C-18.85024145 19.69924608 -18.91285063 13.85616886 -18 8 C-13.70051803 0.23191755 -8.3845623 -0.74059225 0 0 Z " fill="#064EAF" transform="translate(278,212)"/>
<path d="M0 0 C1.9375 1 1.9375 1 3.1875 3.1875 C4.00158712 6.24032669 4.08381766 8.85417035 3.9375 12 C4.44539063 11.72285156 4.95328125 11.44570312 5.4765625 11.16015625 C6.16492188 10.79792969 6.85328125 10.43570313 7.5625 10.0625 C8.23539063 9.70285156 8.90828125 9.34320313 9.6015625 8.97265625 C14.96575708 6.73907021 20.59534429 6.81758644 26.3125 6.8125 C27.38757813 6.79413086 27.38757813 6.79413086 28.484375 6.77539062 C33.61210427 6.76150688 38.00594728 7.59178009 42.9375 9 C42.9375 9.66 42.9375 10.32 42.9375 11 C36.30240788 11.69192767 29.92040373 11.97722461 23.25 11.6875 C14.44215072 11.61537841 10.33260153 14.75922127 4.1875 20.625 C3.445 21.40875 2.7025 22.1925 1.9375 23 C1.091875 23.61875 0.24625 24.2375 -0.625 24.875 C-4.93093294 28.62889026 -7.3676273 33.26730024 -8.0625 39 C-10.0625 37.6875 -10.0625 37.6875 -12.0625 35 C-13.18278443 27.75942486 -11.63012813 21.69106484 -9.0625 15 C-8.07520862 11.86965946 -7.09711903 8.73664636 -6.125 5.6015625 C-4.81390522 2.39130838 -3.69616165 0 0 0 Z " fill="#E7E554" transform="translate(135.0625,180)"/>
<path d="M0 0 C0.66 0 1.32 0 2 0 C2.268125 0.94359375 2.53625 1.8871875 2.8125 2.859375 C6.8396063 16.31005086 13.30792863 28.497767 25.78515625 35.86328125 C34.33626387 40.25194495 42.52304419 40.36870001 52 40 C41.34693169 49.15345906 28.57109103 51.40713273 15 51 C15.309375 50.13375 15.61875 49.2675 15.9375 48.375 C16.288125 47.26125 16.63875 46.1475 17 45 C17.37125 44.030625 17.7425 43.06125 18.125 42.0625 C18.33804576 39.00494109 18.33804576 39.00494109 16.48828125 37.41796875 C15.06497138 36.26034339 13.63476101 35.11117106 12.19921875 33.96875 C5.31026356 27.80172794 0.46414566 17.0189211 -0.2421875 7.859375 C-0.24894145 5.22533352 -0.18293 2.62707803 0 0 Z " fill="#F4990F" transform="translate(72,182)"/>
<path d="M0 0 C0.66 0 1.32 0 2 0 C9.01198811 7.45023736 8.21214281 19.73874094 8.265625 29.37890625 C7.97711221 32.22584868 7.18188207 34.40642546 6 37 C2.08597051 35.73058503 0.20927127 34.48832306 -2 31 C-4.98041321 32.40610917 -7.61237645 34.05268907 -10.3125 35.9375 C-18.41304936 41.31594917 -24.36956213 42.42696523 -34 42 C-30.27226089 37.66519905 -25.71295202 35.87906058 -20.57617188 33.73242188 C-16.16549053 31.79915433 -13.25855182 29.65851847 -10 26 C-8.9171875 24.7934375 -8.9171875 24.7934375 -7.8125 23.5625 C-5.84064679 20.77470753 -4.94325802 18.26512391 -4 15 C-3.67 14.34 -3.34 13.68 -3 13 C-2.34 13 -1.68 13 -1 13 C-1.01160156 12.22914063 -1.02320313 11.45828125 -1.03515625 10.6640625 C-1.04417969 9.66117188 -1.05320313 8.65828125 -1.0625 7.625 C-1.07410156 6.62726563 -1.08570313 5.62953125 -1.09765625 4.6015625 C-1 2 -1 2 0 0 Z " fill="#C119EE" transform="translate(127,224)"/>
<path d="M0 0 C0.66 0 1.32 0 2 0 C2.54940016 8.79040252 -1.46000438 16.57133328 -6.8828125 23.35546875 C-8.52132375 25.01880593 -10.1892304 26.5287497 -12 28 C-12.721875 28.66 -13.44375 29.32 -14.1875 30 C-16 31 -16 31 -20 30 C-20 26.7 -20 23.4 -20 20 C-20.7528125 20.05800781 -21.505625 20.11601562 -22.28125 20.17578125 C-29.14098789 20.46715361 -35.04719574 19.7680345 -41.5625 17.75 C-42.24054688 17.54544189 -42.91859375 17.34088379 -43.6171875 17.13012695 C-47.66064073 15.79058114 -50.25753909 14.26583132 -53 11 C-46.66323172 10.74652927 -46.66323172 10.74652927 -43.4140625 11.98828125 C-38.73956838 13.37351463 -34.34884189 13.3294067 -29.5 13.3125 C-28.11361328 13.33666992 -28.11361328 13.33666992 -26.69921875 13.36132812 C-21.30882018 13.36518392 -17.71808065 12.86870953 -13 10 C-12.01 9.690625 -11.02 9.38125 -10 9.0625 C-6.50905079 7.82612216 -3.9038331 6.29605408 -1 4 C-0.04768403 1.87880872 -0.04768403 1.87880872 0 0 Z " fill="#B5733C" transform="translate(123,223)"/>
<path d="M0 0 C10.8 0 10.8 0 15 3 C18.14226241 7.50390946 18.76578649 11.67140231 18 17 C16.69599117 20.83958155 15.67682194 22.51655576 12.375 24.875 C9 26 9 26 0 26 C0 17.42 0 8.84 0 0 Z " fill="#F3F6FB" transform="translate(335,209)"/>
<path d="M0 0 C2.31 0 4.62 0 7 0 C9.31 6.27 11.62 12.54 14 19 C14.86625 16.8034375 14.86625 16.8034375 15.75 14.5625 C17.71174775 9.65112439 19.81349743 4.81495779 22 0 C24.31 0 26.62 0 29 0 C26.24777233 9.87564046 22.59469585 19.40757875 19 29 C16.03 29 13.06 29 10 29 C0 5.76595745 0 5.76595745 0 0 Z " fill="#0B51B0" transform="translate(396,212)"/>
<path d="M0 0 C0.89396484 -0.00708984 1.78792969 -0.01417969 2.70898438 -0.02148438 C7.71250873 0.02680502 10.93791235 0.35169739 15.0625 3.4375 C16.32025336 4.02866841 17.58992244 4.59585042 18.875 5.125 C19.926875 5.558125 20.97875 5.99125 22.0625 6.4375 C21.9782373 9.30243176 21.5364994 10.97165293 19.47265625 13 C18.21893578 14.02553821 16.94694271 15.02921352 15.65625 16.0078125 C13.78301898 17.4509095 13.78301898 17.4509095 13.0625 20.4375 C11.9796875 18.7978125 11.9796875 18.7978125 10.875 17.125 C8.6089349 13.92169551 6.46392401 12.40674548 3.0625 10.4375 C2.66675781 9.60089844 2.27101562 8.76429688 1.86328125 7.90234375 C0.22317828 5.08091404 0.22317828 5.08091404 -3.29296875 4.73046875 C-4.55753906 4.69566406 -5.82210937 4.66085938 -7.125 4.625 C-8.39730469 4.57730469 -9.66960937 4.52960938 -10.98046875 4.48046875 C-11.95628906 4.46628906 -12.93210938 4.45210937 -13.9375 4.4375 C-10.27352505 -0.80416388 -5.82751677 -0.1296863 0 0 Z " fill="#18F4BD" transform="translate(146.9375,213.5625)"/>
<path d="M0 0 C0.15384615 8 0.15384615 8 -1 11 C-4.02023067 12.51011533 -7.15361141 12.38689513 -10.4921875 12.62109375 C-13.3589057 12.92230946 -13.3589057 12.92230946 -17 15 C-9.575 15.99 -9.575 15.99 -2 17 C-2 17.33 -2 17.66 -2 18 C-3.97033203 18.03867188 -3.97033203 18.03867188 -5.98046875 18.078125 C-7.7161785 18.13441829 -9.4518543 18.19176535 -11.1875 18.25 C-12.05181641 18.26417969 -12.91613281 18.27835938 -13.80664062 18.29296875 C-19.2385012 18.50108601 -21.91065045 19.14938837 -26 23 C-26.99 23 -27.98 23 -29 23 C-27.33359705 16.33438819 -24.1144324 11.00567644 -18.30078125 7.26171875 C-16.41460597 6.24686076 -14.51022814 5.26480339 -12.5859375 4.32421875 C-9.98184664 3.09184882 -9.98184664 3.09184882 -7.8671875 1.34375 C-5.24290213 -0.54485704 -3.1461518 -0.21451035 0 0 Z " fill="#24F20A" transform="translate(158,196)"/>
<path d="M0 0 C1.32 0 2.64 0 4 0 C4.51102567 5.36576957 3.38862598 7.84893317 0 12 C-6.06446432 18.42119751 -13.39207381 23.49314224 -22.37109375 24.3046875 C-25.26689811 24.31150918 -28.11386144 24.2266601 -31 24 C-27.27226089 19.66519905 -22.71295202 17.87906058 -17.57617188 15.73242188 C-11.83692048 13.21682222 -8.15378447 9.62629431 -4.3125 4.6875 C-3.549375 3.800625 -2.78625 2.91375 -2 2 C-1.34 2 -0.68 2 0 2 C0 1.34 0 0.68 0 0 Z " fill="#82299F" transform="translate(124,242)"/>
<path d="M0 0 C0.99 0.33 1.98 0.66 3 1 C5.91580678 7.04429593 6.49318841 12.29032829 6.4375 18.9375 C6.4674707 20.20110352 6.4674707 20.20110352 6.49804688 21.49023438 C6.48895441 33.30134122 0.18039038 41.89578907 -7.875 50 C-8.91163162 51.00521854 -9.95141503 52.00725683 -11 53 C-11.99 52.34 -12.98 51.68 -14 51 C-13.54109375 50.443125 -13.0821875 49.88625 -12.609375 49.3125 C-9.56129842 45.52161484 -6.78623618 41.90495199 -4.6875 37.5 C-3 34 -3 34 -1 33 C1.77410365 26.37297462 1.58596174 19.07462632 1 12 C0.04763341 9.84448589 0.04763341 9.84448589 -1 8 C-1.1875 4.3125 -1.1875 4.3125 -1 1 C-0.67 0.67 -0.34 0.34 0 0 Z " fill="#09248C" transform="translate(137,230)"/>
<path d="M0 0 C0.66 0.33 1.32 0.66 2 1 C1.29979976 4.16648146 0.19596836 7.010482 -1.03125 10.0078125 C-3.24705922 16.05512516 -3.6148609 21.47884436 -3.5 27.875 C-3.48948608 29.44338623 -3.48948608 29.44338623 -3.47875977 31.04345703 C-3.32325961 38.16990177 -2.41314224 44.1486307 0.22265625 50.8046875 C0.47917969 51.52914062 0.73570313 52.25359375 1 53 C0.67 53.66 0.34 54.32 0 55 C-0.94700919 53.82006945 -1.88206299 52.63054211 -2.8125 51.4375 C-3.33457031 50.77621094 -3.85664062 50.11492187 -4.39453125 49.43359375 C-8.74177256 42.8439798 -9.52442826 37.51304136 -9.4375 29.75 C-9.43065186 28.81776611 -9.42380371 27.88553223 -9.41674805 26.92504883 C-9.17116992 16.39094278 -6.00000755 8.58197801 0 0 Z " fill="#8F0F11" transform="translate(108,158)"/>
<path d="M0 0 C0.43828125 0.74636719 0.8765625 1.49273437 1.328125 2.26171875 C4.92335871 7.41790827 7.97502973 10.94789787 13.328125 14.26171875 C13.328125 14.92171875 13.328125 15.58171875 13.328125 16.26171875 C3.25078086 16.21799925 -4.61977544 12.48859091 -11.859375 5.51171875 C-14.671875 2.58724568 -14.671875 2.58724568 -14.671875 0.26171875 C-12.17327798 -0.98757976 -10.00785028 -1.21560695 -7.234375 -1.55078125 C-6.26628906 -1.68097656 -5.29820313 -1.81117188 -4.30078125 -1.9453125 C-1.671875 -1.73828125 -1.671875 -1.73828125 0 0 Z " fill="#F34F7E" transform="translate(101.671875,202.73828125)"/>
<path d="M0 0 C0.71671875 -0.01224609 1.4334375 -0.02449219 2.171875 -0.03710938 C7.29960427 -0.05099312 11.69344728 0.77928009 16.625 2.1875 C16.625 2.8475 16.625 3.5075 16.625 4.1875 C9.98990788 4.87942767 3.60790373 5.16472461 -3.0625 4.875 C-10.34759853 4.80802769 -13.89998646 6.64346042 -19.375 11.1875 C-25.55681818 15.1875 -25.55681818 15.1875 -29.375 15.1875 C-28.81303979 11.81573872 -28.03359228 9.73654171 -25.37890625 7.5234375 C-23.08173522 5.99199015 -20.77705466 4.54839103 -18.375 3.1875 C-17.74335938 2.82140625 -17.11171875 2.4553125 -16.4609375 2.078125 C-11.23590886 -0.1527861 -5.58458338 0.00496849 0 0 Z " fill="#818B0B" transform="translate(161.375,186.8125)"/>
<path d="M0 0 C2.8145761 0.51174111 5.4099511 1.13938338 8.125 2.0625 C13.14001579 3.27581027 17.86799007 3.16704553 23 3 C23 2.34 23 1.68 23 1 C26.3 0.67 29.6 0.34 33 0 C22.34693169 9.15345906 9.57109103 11.40713273 -4 11 C-2.7874262 7.27566618 -1.49140021 3.62197194 0 0 Z " fill="#F9C01A" transform="translate(91,222)"/>
<path d="M0 0 C4.95 0.99 4.95 0.99 10 2 C10.05784708 6.12494151 10.09354407 10.24977944 10.125 14.375 C10.15013672 16.1384375 10.15013672 16.1384375 10.17578125 17.9375 C10.18222656 19.05898437 10.18867187 20.18046875 10.1953125 21.3359375 C10.20578613 22.37282715 10.21625977 23.4097168 10.22705078 24.47802734 C10 27 10 27 8 29 C6.84917315 26.75243216 5.70423142 24.50218252 4.5625 22.25 C4.23701172 21.61578125 3.91152344 20.9815625 3.57617188 20.328125 C0.84764137 14.92732234 -0.13406787 11.2617009 -0.0625 5.25 C-0.05347656 4.26515625 -0.04445313 3.2803125 -0.03515625 2.265625 C-0.02355469 1.51796875 -0.01195313 0.7703125 0 0 Z " fill="#EF7C57" transform="translate(108,184)"/>
<path d="M0 0 C6.34148074 -0.25365923 6.34148074 -0.25365923 9.5859375 0.99609375 C14.26648826 2.37241131 18.64994902 2.25176148 23.5 2.1875 C24.42425781 2.18685547 25.34851563 2.18621094 26.30078125 2.18554688 C30.98792743 2.15537211 35.38264465 1.87883199 40 1 C42.33302989 0.96237049 44.66713319 0.95334266 47 1 C43.27450336 5.50164178 38.4612824 7.53071837 32.76171875 8.3034668 C30.41589035 8.43750695 28.09940909 8.46715158 25.75 8.4375 C24.92169678 8.43137695 24.09339355 8.42525391 23.23999023 8.41894531 C15.51847868 8.22363517 7.55502052 7.28524662 1.68359375 1.859375 C1.12800781 1.24578125 0.57242188 0.6321875 0 0 Z " fill="#75381B" transform="translate(70,234)"/>
<path d="M0 0 C0.66 0 1.32 0 2 0 C3.03219167 3.4490307 3.16498388 6.72575102 3.3125 10.3125 C3.58237641 14.47231911 3.85705853 17.44965806 6.1875 20.9375 C8 24 8 24 7.25 27.4375 C6.8375 28.283125 6.425 29.12875 6 30 C5.67 30 5.34 30 5 30 C4.34 27.36 3.68 24.72 3 22 C0.36 22 -2.28 22 -5 22 C-5.33 21.01 -5.66 20.02 -6 19 C-7.2065625 18.4740625 -7.2065625 18.4740625 -8.4375 17.9375 C-12.0613865 15.19748826 -12.06055315 12.42819584 -12.73828125 8.08203125 C-12.82464844 7.39496094 -12.91101563 6.70789063 -13 6 C-9.66666667 9.33333333 -6.33333333 12.66666667 -3 16 C-2.86722656 15.01257813 -2.73445313 14.02515625 -2.59765625 13.0078125 C-2.42105469 11.72648438 -2.24445313 10.44515625 -2.0625 9.125 C-1.88847656 7.84882813 -1.71445313 6.57265625 -1.53515625 5.2578125 C-1 2 -1 2 0 0 Z " fill="#C4685A" transform="translate(120,198)"/>
<path d="M0 0 C1.66796875 1.1796875 1.66796875 1.1796875 3 3 C3.36328125 5.59375 3.36328125 5.59375 3.3125 8.5 C3.30863281 9.4590625 3.30476563 10.418125 3.30078125 11.40625 C3 14 3 14 1 17 C-5.04942768 17.65993757 -5.04942768 17.65993757 -7.69921875 15.8203125 C-9.48724318 13.31815218 -9.39959952 11.55034101 -9.375 8.5 C-9.38273437 7.5409375 -9.39046875 6.581875 -9.3984375 5.59375 C-9 3 -9 3 -7.6640625 1.1796875 C-5.07427387 -0.65626595 -3.07812588 -0.38476574 0 0 Z " fill="#FAFBFD" transform="translate(309,218)"/>
<path d="M0 0 C0.495 1.98 0.495 1.98 1 4 C-3.49857308 7.63082802 -7.32952747 10.48787399 -13 12 C-13.77819092 12.34144043 -14.55638184 12.68288086 -15.3581543 13.03466797 C-18.1416163 14.05174668 -20.13441467 14.23147957 -23.08203125 14.1953125 C-24.47905273 14.18564453 -24.47905273 14.18564453 -25.90429688 14.17578125 C-26.86400391 14.15902344 -27.82371094 14.14226562 -28.8125 14.125 C-29.79154297 14.11597656 -30.77058594 14.10695312 -31.77929688 14.09765625 C-34.18645061 14.07417182 -36.59309743 14.0413284 -39 14 C-38.01 13.67 -37.02 13.34 -36 13 C-36 12.01 -36 11.02 -36 10 C-34.85144531 9.91363281 -33.70289062 9.82726562 -32.51953125 9.73828125 C-20.47528869 8.69915483 -10.42483677 6.51314938 0 0 Z " fill="#EFE8DD" transform="translate(122,223)"/>
<path d="M0 0 C-0.8125 1.9453125 -0.8125 1.9453125 -2 4 C-3.61281053 4.47040307 -5.23072045 4.92857734 -6.8671875 5.30859375 C-11.28210217 6.73980235 -15.09915315 9.53531702 -19 12 C-19.84949219 12.44214844 -20.69898438 12.88429687 -21.57421875 13.33984375 C-24.56420871 15.38613318 -25.86069954 17.51328146 -27.6875 20.625 C-30.81360671 25.90680336 -30.81360671 25.90680336 -33 27 C-32.73065686 20.53576471 -30.42447993 16.6811203 -26 12 C-24.03081154 10.62156808 -22.03335209 9.28189588 -20 8 C-19.360625 7.175 -18.72125 6.35 -18.0625 5.5 C-12.68041161 -1.02374351 -7.85635333 -1.63896713 0 0 Z " fill="#DBF2C8" transform="translate(160,192)"/>
<path d="M0 0 C4.39779642 0.72972286 6.49709552 3.0990778 9.609375 6.11328125 C15.69279843 10.91441445 21.92078329 12.7007599 29.5 13.75 C30.32242188 13.87503906 31.14484375 14.00007812 31.9921875 14.12890625 C33.99300228 14.431355 35.99628194 14.71742438 38 15 C38 15.66 38 16.32 38 17 C29.46051112 19.84649629 20.98006995 17.59679894 13 14 C7.95878178 11.05187917 3.13301418 8.0448535 0 3 C0 2.01 0 1.02 0 0 Z " fill="#F6E7DC" transform="translate(85,205)"/>
<path d="M0 0 C5.14686488 -0.44159492 7.62121644 0.57973699 11.75 3.625 C12.69359375 4.29789063 13.6371875 4.97078125 14.609375 5.6640625 C17.35423439 8.34613099 18.16260663 10.28721978 19 14 C18.625 16.375 18.625 16.375 18 18 C17.34 18 16.68 18 16 18 C16.09539062 18.90363281 16.19078125 19.80726563 16.2890625 20.73828125 C16.39992187 21.91777344 16.51078125 23.09726563 16.625 24.3125 C16.79902344 26.07013672 16.79902344 26.07013672 16.9765625 27.86328125 C17 31 17 31 15 34 C14.96261719 32.865625 14.92523438 31.73125 14.88671875 30.5625 C14.50318018 19.45319314 14.50318018 19.45319314 11 9 C10.39414063 9.20882812 9.78828125 9.41765625 9.1640625 9.6328125 C8.09285156 9.81457031 8.09285156 9.81457031 7 10 C3.39713352 7.0833938 1.38833764 4.41743795 0 0 Z " fill="#5B71E5" transform="translate(128,222)"/>
<path d="M0 0 C0.33 0 0.66 0 1 0 C0.67 3.3 0.34 6.6 0 10 C-0.66 10 -1.32 10 -2 10 C-2.12375 10.61746094 -2.2475 11.23492187 -2.375 11.87109375 C-4.13421706 19.0948788 -7.30829956 24.16309706 -13 29 C-15.96465652 30.44177825 -17.6860766 31 -21 31 C-21.33 29.68 -21.66 28.36 -22 27 C-21.01 26.525625 -20.02 26.05125 -19 25.5625 C-9.12571011 19.80913351 -4.54640488 9.98788323 0 0 Z " fill="#EDE0EC" transform="translate(126,227)"/>
<path d="M0 0 C2 0.0625 2 0.0625 4 1 C6.30238787 4.91405938 6.17461992 8.54719212 6 13 C5.01 12.67 4.02 12.34 3 12 C0.90708843 12.08571661 0.90708843 12.08571661 -1 13 C-1.6837045 14.32467746 -2.34964186 15.65863633 -3 17 C-5.125 18.25 -5.125 18.25 -7 19 C-6.42697729 12.41023883 -4.79679264 4.79679264 0 0 Z " fill="#F8F854" transform="translate(133,180)"/>
<path d="M0 0 C3.89116744 2.59411163 3.91038586 4.56371387 5 9 C5.33 9.99 5.66 10.98 6 12 C6.55503838 20.30422813 6.19030532 27.29009547 3 35 C2.34 34.67 1.68 34.34 1 34 C1 33.34 1 32.68 1 32 C0.34 31.67 -0.32 31.34 -1 31 C-0.67386719 30.28714844 -0.34773437 29.57429688 -0.01171875 28.83984375 C3.08499624 20.1475202 0.74660669 9.0126093 0 0 Z " fill="#BFC3DE" transform="translate(133,230)"/>
<path d="M0 0 C0.66 0 1.32 0 2 0 C2.29132813 0.97839844 2.58265625 1.95679688 2.8828125 2.96484375 C5.09223005 10.11693187 7.28993347 16.3154032 11.86328125 22.36328125 C13 24 13 24 13 26 C11.35 25.67 9.7 25.34 8 25 C7.67 25.99 7.34 26.98 7 28 C2.41145851 18.15740336 -0.35060023 10.94651829 0 0 Z " fill="#F5B932" transform="translate(72,182)"/>
<path d="M0 0 C6.03818226 3.99931552 11.4061144 8.60410189 15 15 C14.67 15.99 14.34 16.98 14 18 C13.154375 17.39671875 12.30875 16.7934375 11.4375 16.171875 C5.471079 11.95464217 -0.31366132 8.01540764 -7 5 C-6.67 4.34 -6.34 3.68 -6 3 C-4.33333333 2.66666667 -2.66666667 2.33333333 -1 2 C-0.67 1.34 -0.34 0.68 0 0 Z " fill="#3FCA25" transform="translate(172,214)"/>
<path d="M0 0 C3.10385211 -0.11613204 6.20714662 -0.18722029 9.3125 -0.25 C10.19357422 -0.28351563 11.07464844 -0.31703125 11.98242188 -0.3515625 C18.52876499 -0.45112665 18.52876499 -0.45112665 21.10546875 2.015625 C21.40066406 2.67046875 21.69585937 3.3253125 22 4 C21.67 4.66 21.34 5.32 21 6 C19.68 5.34 18.36 4.68 17 4 C17.66 5.98 18.32 7.96 19 10 C16.0280615 8.87548273 13.66559313 7.77706209 11 6 C8.95130926 5.55570562 6.88545707 5.18705805 4.8125 4.875 C3.18248047 4.62363281 3.18248047 4.62363281 1.51953125 4.3671875 C0.27236328 4.18542969 0.27236328 4.18542969 -1 4 C-0.67 2.68 -0.34 1.36 0 0 Z " fill="#18E0B0" transform="translate(128,218)"/>
<path d="M0 0 C0.99 0.33 1.98 0.66 3 1 C3.06316406 1.92039063 3.12632813 2.84078125 3.19140625 3.7890625 C4.17236013 13.9290279 6.94664706 21.14713357 12 30 C12.33 30.66 12.66 31.32 13 32 C9.24802175 30.4941612 7.35680227 28.33457626 4.875 25.1875 C3.85019531 23.90939453 3.85019531 23.90939453 2.8046875 22.60546875 C-0.83068442 17.3569989 -1.22490314 13.45648781 -0.625 7.1875 C-0.56828125 6.49462891 -0.5115625 5.80175781 -0.453125 5.08789062 C-0.31269396 3.39101554 -0.15780593 1.69534752 0 0 Z " fill="#EED3CD" transform="translate(105,183)"/>
<path d="M0 0 C0.66 0 1.32 0 2 0 C3.97549323 2.2681589 4.98208687 4.04164759 5.0390625 7.08984375 C4.5621055 11.90053078 3.46715292 16.40292084 2 21 C1.67 20.01 1.34 19.02 1 18 C-0.32 18 -1.64 18 -3 18 C-3 18.66 -3 19.32 -3 20 C-3.99 19.67 -4.98 19.34 -6 19 C-5.01 17.02 -4.02 15.04 -3 13 C-2.34 13 -1.68 13 -1 13 C-1.01160156 12.22914063 -1.02320312 11.45828125 -1.03515625 10.6640625 C-1.04869141 9.15972656 -1.04869141 9.15972656 -1.0625 7.625 C-1.07410156 6.62726563 -1.08570312 5.62953125 -1.09765625 4.6015625 C-1 2 -1 2 0 0 Z " fill="#A907D5" transform="translate(127,224)"/>
<path d="M0 0 C0.66 0.33 1.32 0.66 2 1 C1 3 0 5 -1 7 C-0.34 7.33 0.32 7.66 1 8 C-5.31715405 11.44572039 -10.90370975 11.31461385 -18 11 C-14.79027302 7.36284706 -11.17820589 5.28586741 -6.875 3.1875 C-5.92560547 2.70120117 -5.92560547 2.70120117 -4.95703125 2.20507812 C-3.3367588 1.40182204 -1.67045409 0.69288259 0 0 Z " fill="#982AB8" transform="translate(111,255)"/>
<path d="M0 0 C0.89396484 -0.00708984 1.78792969 -0.01417969 2.70898438 -0.02148438 C7.69721032 0.02665738 10.95728734 0.33508738 15.0625 3.4375 C16.71619357 4.13572617 18.37977014 4.81248605 20.0625 5.4375 C16.7663111 6.53622963 15.83580809 6.31539391 12.5703125 5.5078125 C6.97063262 4.29668581 1.64618571 4.20826838 -4.0625 4.3125 C-5.01898438 4.32152344 -5.97546875 4.33054688 -6.9609375 4.33984375 C-9.28673525 4.36310173 -11.61197294 4.39577787 -13.9375 4.4375 C-10.27352505 -0.80416388 -5.82751677 -0.1296863 0 0 Z " fill="#A8EDC3" transform="translate(146.9375,213.5625)"/>
<path d="M0 0 C5.55778539 1.19873803 8.14626641 2.61102563 12 7 C12.598125 7.598125 13.19625 8.19625 13.8125 8.8125 C14.204375 9.204375 14.59625 9.59625 15 10 C14 12 14 12 11.375 13.0625 C7.49372291 12.9906245 6.92224578 12.4974476 4.1875 9.9375 C1.30075029 6.77097719 0.10704005 4.38864211 0 0 Z " fill="#F19C23" transform="translate(80,207)"/>
<path d="M0 0 C0.66 0.33 1.32 0.66 2 1 C1.32218784 4.08545744 0.23827301 6.78757387 -1 9.6875 C-3.83498708 17.24746554 -3.81285416 25.01822988 -4 33 C-6.07912902 29.88130646 -6.30503876 28.72945739 -6.5625 25.125 C-6.76134682 22.47100369 -6.96395864 20.12494338 -7.703125 17.5625 C-8.11973864 13.96646649 -6.87846102 12.03515666 -5.1875 8.875 C-4.64480469 7.84117187 -4.10210937 6.80734375 -3.54296875 5.7421875 C-2 3 -2 3 0 0 Z " fill="#D15F78" transform="translate(108,158)"/>
<path d="M0 0 C-2.59988552 1.50787377 -5.20440197 3.00645461 -7.8125 4.5 C-8.55048828 4.92925781 -9.28847656 5.35851562 -10.04882812 5.80078125 C-10.76103516 6.20683594 -11.47324219 6.61289063 -12.20703125 7.03125 C-12.8616333 7.40830078 -13.51623535 7.78535156 -14.19067383 8.17382812 C-16 9 -16 9 -19 9 C-19.66 8.67 -20.32 8.34 -21 8 C-20 5 -20 5 -17.41796875 3.4296875 C-15.81888672 2.66011719 -15.81888672 2.66011719 -14.1875 1.875 C-13.12917969 1.35679687 -12.07085937 0.83859375 -10.98046875 0.3046875 C-6.23382794 -1.7731343 -4.60877679 -2.47673216 0 0 Z " fill="#CE7A5C" transform="translate(155,163)"/>
<path d="M0 0 C2.66694948 -0.05455124 5.33275498 -0.09393392 8 -0.125 C8.74378906 -0.14175781 9.48757812 -0.15851563 10.25390625 -0.17578125 C15.50548443 -0.22144715 19.9516946 0.54287549 25 2 C25 2.66 25 3.32 25 4 C22.77156512 4.19600577 20.54220107 4.38146569 18.3125 4.5625 C16.45044922 4.71912109 16.45044922 4.71912109 14.55078125 4.87890625 C11.44164467 4.98493841 8.99189028 4.77228525 6 4 C6 3.34 6 2.68 6 2 C3.03 1.505 3.03 1.505 0 1 C0 0.67 0 0.34 0 0 Z " fill="#CDCC49" transform="translate(153,187)"/>
<path d="M0 0 C3.48293028 -0.13931721 6.32921133 -0.24755296 9.625 0.96875 C14.05481 2.32230305 18.26784233 2.45847623 22.875 2.625 C23.75414063 2.66367188 24.63328125 2.70234375 25.5390625 2.7421875 C27.69238793 2.83581034 29.84616414 2.91896459 32 3 C32 3.33 32 3.66 32 4 C31.14277344 4.04898438 30.28554687 4.09796875 29.40234375 4.1484375 C22.23112602 4.55628126 22.23112602 4.55628126 15.3125 6.3125 C10.32819558 7.34697828 6.33654385 5.51313419 2 3 C1.34 2.01 0.68 1.02 0 0 Z " fill="#85481F" transform="translate(70,234)"/>
<path d="M0 0 C2.9375 0.8125 2.9375 0.8125 4.9375 3.8125 C4.9375 4.8025 4.9375 5.7925 4.9375 6.8125 C0.9775 6.8125 -2.9825 6.8125 -7.0625 6.8125 C-6.7325 5.1625 -6.4025 3.5125 -6.0625 1.8125 C-3.0625 -0.1875 -3.0625 -0.1875 0 0 Z " fill="#DBE5F3" transform="translate(381.0625,217.1875)"/>
<path d="M0 0 C2.6832907 2.60662526 5.18513498 5.18548886 7.5 8.125 C9.87676661 10.8582816 11.90125775 12.22929014 15 14 C15 14.66 15 15.32 15 16 C12.69 16 10.38 16 8 16 C7.67 15.01 7.34 14.02 7 13 C6.195625 12.649375 5.39125 12.29875 4.5625 11.9375 C0.9386135 9.19748826 0.93944685 6.42819584 0.26171875 2.08203125 C0.17535156 1.39496094 0.08898437 0.70789063 0 0 Z " fill="#B31E38" transform="translate(107,204)"/>
<path d="M0 0 C2 3 2 3 1.79980469 4.88525391 C1.59258789 5.57538574 1.38537109 6.26551758 1.171875 6.9765625 C0.94886719 7.729375 0.72585937 8.4821875 0.49609375 9.2578125 C0.24988281 10.03898438 0.00367188 10.82015625 -0.25 11.625 C-0.48074219 12.41390625 -0.71148437 13.2028125 -0.94921875 14.015625 C-1.56276904 16.03306155 -2.27469258 18.0199941 -3 20 C-3.66 20.33 -4.32 20.66 -5 21 C-6.94115929 17.11768143 -6.43994119 13.39488463 -5.17578125 9.38671875 C-2.49155806 2.49155806 -2.49155806 2.49155806 0 0 Z " fill="#F3EBDC" transform="translate(128,183)"/>
<path d="M0 0 C1.8125 1.25 1.8125 1.25 3 3 C3 4.32 3 5.64 3 7 C-0.96 7 -4.92 7 -9 7 C-7.61133652 1.44534609 -5.99008641 -0.89851296 0 0 Z " fill="#DDE6F4" transform="translate(276,217)"/>
<path d="M0 0 C0.33 0 0.66 0 1 0 C0.67 3.3 0.34 6.6 0 10 C-0.66 10 -1.32 10 -2 10 C-2.19335938 10.71027344 -2.38671875 11.42054688 -2.5859375 12.15234375 C-2.84632812 13.07144531 -3.10671875 13.99054688 -3.375 14.9375 C-3.63023438 15.85402344 -3.88546875 16.77054688 -4.1484375 17.71484375 C-5 20 -5 20 -7 21 C-7.33 20.34 -7.66 19.68 -8 19 C-8.99 19.99 -9.98 20.98 -11 22 C-11.66 21.67 -12.32 21.34 -13 21 C-12.154375 20.13375 -11.30875 19.2675 -10.4375 18.375 C-5.75879327 12.98164594 -3.00675053 6.41380809 0 0 Z " fill="#E8D5D6" transform="translate(126,227)"/>
<path d="M0 0 C6.64615385 1.47692308 6.64615385 1.47692308 8.4375 4.125 C8.7159375 5.053125 8.7159375 5.053125 9 6 C4.27069335 7.96093203 0.98760752 8.24690188 -4 7 C-4.66 6.01 -5.32 5.02 -6 4 C-4.02 4 -2.04 4 0 4 C0 2.68 0 1.36 0 0 Z " fill="#449E1C" transform="translate(163,210)"/>
<path d="M0 0 C2.99332739 0.9977758 3.94766315 1.7522025 6 4 C6.33 3.34 6.66 2.68 7 2 C7.08097324 4.27024968 7.13917704 6.54132075 7.1875 8.8125 C7.22230469 10.07707031 7.25710937 11.34164063 7.29296875 12.64453125 C7 16 7 16 4 19 C2.68 12.73 1.36 6.46 0 0 Z " fill="#31CBA4" transform="translate(160,247)"/>
<path d="M0 0 C6.68740207 0.3429437 12.10216959 4.02838224 16.6875 8.73046875 C17.84291116 10.11236675 18.93030451 11.55073515 20 13 C19.34 13.66 18.68 14.32 18 15 C15.37537775 12.97529141 12.97215243 10.97064715 10.6875 8.5625 C7.84102165 5.84841599 4.95338702 3.98940905 1.57421875 2.015625 C1.05472656 1.68046875 0.53523437 1.3453125 0 1 C0 0.67 0 0.34 0 0 Z " fill="#D7EAEC" transform="translate(135,223)"/>
<path d="M0 0 C7.20540717 0.0169539 14.28387654 0.3291243 21.4453125 1.1328125 C21.4453125 1.4628125 21.4453125 1.7928125 21.4453125 2.1328125 C19.47498047 2.17148438 19.47498047 2.17148438 17.46484375 2.2109375 C15.729134 2.26723079 13.9934582 2.32457785 12.2578125 2.3828125 C11.39349609 2.39699219 10.52917969 2.41117188 9.63867188 2.42578125 C4.2068113 2.63389851 1.53466205 3.28220087 -2.5546875 7.1328125 C-3.5446875 7.1328125 -4.5346875 7.1328125 -5.5546875 7.1328125 C-3.33356801 0.17330476 -3.33356801 0.17330476 0 0 Z " fill="#31D723" transform="translate(134.5546875,211.8671875)"/>
<path d="M0 0 C0.66 0.33 1.32 0.66 2 1 C1.09507812 1.63615234 1.09507812 1.63615234 0.171875 2.28515625 C-5.94191757 6.77189112 -9.8225983 10.38851 -11.75 17.9375 C-11.8325 18.618125 -11.915 19.29875 -12 20 C-12.66 19.67 -13.32 19.34 -14 19 C-14.51326523 13.61071507 -13.06999794 11.33411474 -10 7 C-8.75675853 3.7750792 -8.75675853 3.7750792 -8 1 C-7.67 1.66 -7.34 2.32 -7 3 C-5.88625 2.484375 -4.7725 1.96875 -3.625 1.4375 C-2.42875 0.963125 -1.2325 0.48875 0 0 Z " fill="#CED132" transform="translate(139,199)"/>
<path d="M0 0 C0.99 0.33 1.98 0.66 3 1 C3 1.66 3 2.32 3 3 C2.25105469 3.42023438 1.50210938 3.84046875 0.73046875 4.2734375 C-2.52194208 6.33004063 -3.75104385 8.32649716 -5.6875 11.625 C-8.81360671 16.90680336 -8.81360671 16.90680336 -11 18 C-10.73124573 11.54989753 -8.36586822 7.70327724 -4 3 C-1.98828125 1.203125 -1.98828125 1.203125 0 0 Z " fill="#DEF3BB" transform="translate(138,201)"/>
<path d="M0 0 C5.41538462 -0.36923077 5.41538462 -0.36923077 8.375 1.5 C8.91125 1.995 9.4475 2.49 10 3 C9.34 5.31 8.68 7.62 8 10 C3.97881358 7.93506643 1.98665002 6.07786057 0 2 C0 1.34 0 0.68 0 0 Z " fill="#4A5CD6" transform="translate(128,222)"/>
<path d="M0 0 C0.680625 0.721875 1.36125 1.44375 2.0625 2.1875 C4.16006249 4.30917241 6.34995143 6.00575951 8.8125 7.6875 C9.864375 8.450625 10.91625 9.21375 12 10 C12 10.66 12 11.32 12 12 C10.35369672 11.85957123 8.70795821 11.71250671 7.0625 11.5625 C5.68771484 11.44068359 5.68771484 11.44068359 4.28515625 11.31640625 C2 11 2 11 1 10 C0.76712992 8.31816052 0.58735834 6.6287584 0.4375 4.9375 C0.35371094 4.01839844 0.26992187 3.09929687 0.18359375 2.15234375 C0.09271484 1.08693359 0.09271484 1.08693359 0 0 Z " fill="#E8446E" transform="translate(103,207)"/>
<path d="M0 0 C0.33 1.32 0.66 2.64 1 4 C-0.24054448 5.01170618 -1.4928702 6.00897797 -2.75 7 C-3.44609375 7.556875 -4.1421875 8.11375 -4.859375 8.6875 C-7 10 -7 10 -11 10 C-11 9.34 -11 8.68 -11 8 C-12.32 7.67 -13.64 7.34 -15 7 C-14.16855469 6.66226563 -13.33710937 6.32453125 -12.48046875 5.9765625 C-11.39378906 5.53054687 -10.30710937 5.08453125 -9.1875 4.625 C-8.10855469 4.18414062 -7.02960938 3.74328125 -5.91796875 3.2890625 C-2.89269888 2.0520881 -2.89269888 2.0520881 0 0 Z " fill="#EDDEBA" transform="translate(122,223)"/>
<path d="M0 0 C1.75 0.125 1.75 0.125 4 1 C8 6.22222222 8 6.22222222 8 9 C8.99 9 9.98 9 11 9 C11 10.98 11 12.96 11 15 C5.24944588 13.08314863 2.70209001 7.11467038 0 2 C0 1.34 0 0.68 0 0 Z " fill="#19A97F" transform="translate(155,236)"/>
<path d="M0 0 C0.66 0 1.32 0 2 0 C2 1.98 2 3.96 2 6 C1.1028125 6.37125 1.1028125 6.37125 0.1875 6.75 C-2.13135392 7.84031943 -2.13135392 7.84031943 -3.25 10.0625 C-6.02320203 13.13283082 -8.96273011 12.73526099 -13 13 C-13 12.01 -13 11.02 -13 10 C-12.13375 9.7525 -11.2675 9.505 -10.375 9.25 C-6.75334802 7.90864742 -4.02830753 6.39447572 -1 4 C-0.04768403 1.87880872 -0.04768403 1.87880872 0 0 Z " fill="#9F5D2C" transform="translate(123,223)"/>
<path d="M0 0 C1.32 0.33 2.64 0.66 4 1 C4 4 4 4 2.03125 6.26171875 C1.1959375 7.06222656 0.360625 7.86273438 -0.5 8.6875 C-1.3353125 9.49574219 -2.170625 10.30398438 -3.03125 11.13671875 C-4.00578125 12.05904297 -4.00578125 12.05904297 -5 13 C-5.99 12.34 -6.98 11.68 -8 11 C-7.50628906 10.37351562 -7.01257813 9.74703125 -6.50390625 9.1015625 C-5.54291016 7.87566406 -5.54291016 7.87566406 -4.5625 6.625 C-3.92441406 5.81289063 -3.28632812 5.00078125 -2.62890625 4.1640625 C-0.97776453 2.10601894 -0.97776453 2.10601894 0 0 Z " fill="#4F61D1" transform="translate(131,270)"/>
<path d="M0 0 C0.69738281 0.10892578 1.39476563 0.21785156 2.11328125 0.33007812 C3.82806295 0.60021497 5.53944631 0.89176995 7.25 1.1875 C7.25 1.8475 7.25 2.5075 7.25 3.1875 C0.98875963 5.27458012 -5.694416 4.73721958 -11.75 2.1875 C-8.08719066 -1.56027142 -4.7774854 -0.84441377 0 0 Z " fill="#EFCFB3" transform="translate(115.75,218.8125)"/>
<path d="M0 0 C0.66 0 1.32 0 2 0 C3.25 2.0625 3.25 2.0625 4 5 C2.95421827 7.60906369 1.57355686 9.63966471 0 12 C-0.99 12 -1.98 12 -3 12 C-3.66 11.34 -4.32 10.68 -5 10 C-3.25 5.125 -3.25 5.125 -1 4 C-0.34786708 1.97536745 -0.34786708 1.97536745 0 0 Z " fill="#2641A3" transform="translate(137,259)"/>
<path d="M0 0 C0.66 0.33 1.32 0.66 2 1 C0.96014641 4.11956076 0.32277946 4.84927828 -2 7 C-2.639375 7.721875 -3.27875 8.44375 -3.9375 9.1875 C-6 11 -6 11 -10 11 C-9.52591957 6.73327616 -7.11692878 4.7544952 -4 2 C-1.8125 0.625 -1.8125 0.625 0 0 Z " fill="#EEEF40" transform="translate(136,191)"/>
<path d="M0 0 C0.66 0 1.32 0 2 0 C2.185625 1.1446875 2.185625 1.1446875 2.375 2.3125 C4.7223273 6.19461823 7.63193166 6.42971619 11.8828125 7.51953125 C12.58148438 7.67808594 13.28015625 7.83664063 14 8 C14 8.33 14 8.66 14 9 C9.38 9.33 4.76 9.66 0 10 C0 6.7 0 3.4 0 0 Z " fill="#969FE6" transform="translate(144,241)"/>
<path d="M0 0 C3 2 3 2 3.6875 4.375 C4.13668884 9.5855905 4.07611092 14.77371667 4 20 C3.34 20 2.68 20 2 20 C1.34 13.4 0.68 6.8 0 0 Z " fill="#D9BDEC" transform="translate(133,230)"/>
<path d="M0 0 C5.94 1.485 5.94 1.485 12 3 C12 3.66 12 4.32 12 5 C7.47258828 6.50913724 2.93573202 6.77429281 -1.5 5 C-1.995 4.67 -2.49 4.34 -3 4 C-1.68 3.67 -0.36 3.34 1 3 C0.67 2.01 0.34 1.02 0 0 Z " fill="#F7B00C" transform="translate(102,220)"/>
<path d="M0 0 C-2.97 0 -5.94 0 -9 0 C-9 0.99 -9 1.98 -9 3 C-7.02 3 -5.04 3 -3 3 C-3 3.33 -3 3.66 -3 4 C-13.55808656 4.18451025 -13.55808656 4.18451025 -18 3 C-14.7952167 -0.35045526 -12.66184617 -1.16745645 -8.0625 -1.6875 C-7.18722656 -1.79449219 -6.31195313 -1.90148437 -5.41015625 -2.01171875 C-3 -2 -3 -2 0 0 Z " fill="#31AF0D" transform="translate(158,209)"/>
<path d="M0 0 C1.32 0.66 2.64 1.32 4 2 C2.02 4.64 0.04 7.28 -2 10 C-3.65 8.68 -5.3 7.36 -7 6 C-4.69 4.02 -2.38 2.04 0 0 Z " fill="#B2502F" transform="translate(133,170)"/>
<path d="M0 0 C3.1875 -0.3125 3.1875 -0.3125 6 0 C6 2.31 6 4.62 6 7 C2.61976483 7 0.16531063 6.12544378 -3 5 C-1.875 2.5 -1.875 2.5 0 0 Z " fill="#16F60E" transform="translate(152,196)"/>
<path d="M0 0 C1.39461618 2.78923236 0.55309713 4.0709595 -0.375 7 C-0.65085937 7.886875 -0.92671875 8.77375 -1.2109375 9.6875 C-2 12 -2 12 -3 14 C-3.66 14 -4.32 14 -5 14 C-5.28328381 10.29212965 -5.46346554 6.69681924 -5 3 C-2.5 0.8125 -2.5 0.8125 0 0 Z " fill="#852305" transform="translate(122,184)"/>
<path d="M0 0 C0.66 0 1.32 0 2 0 C1.85930804 2.12534659 1.71229079 4.25027529 1.5625 6.375 C1.48128906 7.55835938 1.40007812 8.74171875 1.31640625 9.9609375 C1 13 1 13 0 15 C-0.99 15 -1.98 15 -3 15 C-2.69163768 12.87439563 -2.37818386 10.74952935 -2.0625 8.625 C-1.88847656 7.44164062 -1.71445313 6.25828125 -1.53515625 5.0390625 C-1 2 -1 2 0 0 Z " fill="#C35831" transform="translate(120,198)"/>
<path d="M0 0 C0.33 0 0.66 0 1 0 C1 3.63 1 7.26 1 11 C0.67 10.01 0.34 9.02 0 8 C-1.32 8 -2.64 8 -4 8 C-4 8.66 -4 9.32 -4 10 C-4.99 9.67 -5.98 9.34 -7 9 C-6.01 7.02 -5.02 5.04 -4 3 C-3.01 3 -2.02 3 -1 3 C-0.67 2.01 -0.34 1.02 0 0 Z " fill="#9B1DBE" transform="translate(128,234)"/>
<path d="M0 0 C0.33 0 0.66 0 1 0 C1.25 6.625 1.25 6.625 -1 10 C-3.625 10.6875 -3.625 10.6875 -6 11 C-6 9.35 -6 7.7 -6 6 C-5.34 6 -4.68 6 -4 6 C-4 5.34 -4 4.68 -4 4 C-3.01 4 -2.02 4 -1 4 C-0.67 2.68 -0.34 1.36 0 0 Z " fill="#711D8E" transform="translate(126,243)"/>
<path d="M0 0 C2.69082872 0.17635452 5.32851446 0.61835921 8 1 C5.52414762 3.65269897 3.40973899 5.68010103 0 7 C-0.99 7 -1.98 7 -3 7 C-1.125 1.125 -1.125 1.125 0 0 Z " fill="#939C07" transform="translate(135,195)"/>
<path d="M0 0 C1.67542976 0.28604898 3.34385343 0.61781233 5 1 C4.5206753 5.31392226 3.2542015 7.16569547 0 10 C-0.19412181 8.52168779 -0.38012131 7.04230684 -0.5625 5.5625 C-0.66691406 4.73878906 -0.77132812 3.91507813 -0.87890625 3.06640625 C-0.91886719 2.38449219 -0.95882812 1.70257813 -1 1 C-0.67 0.67 -0.34 0.34 0 0 Z " fill="#9F3D20" transform="translate(125,177)"/>
<path d="M0 0 C6.625 -0.125 6.625 -0.125 10 1 C10 2.65 10 4.3 10 6 C8.70414084 5.57507874 7.4133956 5.13454118 6.125 4.6875 C5.40570313 4.44386719 4.68640625 4.20023438 3.9453125 3.94921875 C2 3 2 3 0 0 Z " fill="#9E6235" transform="translate(70,234)"/>
<path d="M0 0 C0 0.66 0 1.32 0 2 C0.66 2.66 1.32 3.32 2 4 C-1.96 4 -5.92 4 -10 4 C-4.61538462 -1.38461538 -4.61538462 -1.38461538 0 0 Z " fill="#AA26CF" transform="translate(103,262)"/>
<path d="M0 0 C0.66 0.33 1.32 0.66 2 1 C1.34 1.66 0.68 2.32 0 3 C-0.144375 3.66 -0.28875 4.32 -0.4375 5 C-1 7 -1 7 -4 9 C-4.99 9 -5.98 9 -7 9 C-7.33 7.68 -7.66 6.36 -8 5 C-6.20963542 3.99088542 -4.41927083 2.98177083 -2.62890625 1.97265625 C-1.02121854 1.1027487 -1.02121854 1.1027487 0 0 Z " fill="#F0E4DE" transform="translate(112,249)"/>
<path d="M0 0 C0.99 0.33 1.98 0.66 3 1 C4.22393475 3.95784231 3.96516243 5.99727245 3 9 C1.68 8.67 0.36 8.34 -1 8 C-1.04241723 5.66705225 -1.04092937 3.33297433 -1 1 C-0.67 0.67 -0.34 0.34 0 0 Z " fill="#213E9F" transform="translate(137,230)"/>
<path d="M0 0 C0.33 0 0.66 0 1 0 C1 4.29 1 8.58 1 13 C0.01 12.67 -0.98 12.34 -2 12 C-2 12.66 -2 13.32 -2 14 C-2.99 13.67 -3.98 13.34 -5 13 C-5 12.34 -5 11.68 -5 11 C-4.01 11 -3.02 11 -2 11 C-1.34 7.37 -0.68 3.74 0 0 Z " fill="#DD9172" transform="translate(122,202)"/>
<path d="M0 0 C6.258654 -0.5326514 10.45108785 1.18150494 16 4 C12.19068824 5.26977059 10.18381007 4.52074507 6.3125 3.5625 C4.54326172 3.13130859 4.54326172 3.13130859 2.73828125 2.69140625 C1.83464844 2.46324219 0.93101562 2.23507813 0 2 C0 1.34 0 0.68 0 0 Z " fill="#E6F7EA" transform="translate(151,215)"/>
<path d="M0 0 C1.32 0.33 2.64 0.66 4 1 C3.34 3.64 2.68 6.28 2 9 C1.34 8.67 0.68 8.34 0 8 C0 7.34 0 6.68 0 6 C-0.66 5.67 -1.32 5.34 -2 5 C-1.34 3.35 -0.68 1.7 0 0 Z " fill="#DDD6EC" transform="translate(134,256)"/>
<path d="M0 0 C1.98 0 3.96 0 6 0 C6.99 2.31 7.98 4.62 9 7 C5.56072421 5.7580393 2.74792181 4.44259716 0 2 C0 1.34 0 0.68 0 0 Z " fill="#20BE9D" transform="translate(138,221)"/>
<path d="M0 0 C1.98 0 3.96 0 6 0 C6.33 0.66 6.66 1.32 7 2 C6.34 2 5.68 2 5 2 C5 3.98 5 5.96 5 8 C2.20127563 5.47211993 0.54226981 3.79588866 0 0 Z " fill="#8D92E0" transform="translate(128,222)"/>
<path d="M0 0 C6.64615385 1.47692308 6.64615385 1.47692308 8.4375 4.125 C8.7159375 5.053125 8.7159375 5.053125 9 6 C5.65626525 5.44271087 2.96687001 4.64826111 0 3 C0 2.01 0 1.02 0 0 Z " fill="#F6A109" transform="translate(80,207)"/>
<path d="M0 0 C2 2 2 2 2.1953125 4.1640625 C2.16050781 5.38222656 2.16050781 5.38222656 2.125 6.625 C2.10695313 7.44226563 2.08890625 8.25953125 2.0703125 9.1015625 C2.04710938 9.72804687 2.02390625 10.35453125 2 11 C1.34 11 0.68 11 0 11 C-1.62651522 7.74696956 -1.11453156 4.60774398 -1 1 C-0.67 0.67 -0.34 0.34 0 0 Z " fill="#A80F2B" transform="translate(100,176)"/>
<path d="M0 0 C2.4375 1.25 2.4375 1.25 3.4375 4.25 C1.1275 4.25 -1.1825 4.25 -3.5625 4.25 C-3.8925 2.93 -4.2225 1.61 -4.5625 0.25 C-2.5625 -0.75 -2.5625 -0.75 0 0 Z " fill="#D92553" transform="translate(118.5625,215.75)"/>
<path d="M0 0 C-4.43076923 3.07692308 -4.43076923 3.07692308 -7.3125 2.6875 C-7.869375 2.460625 -8.42625 2.23375 -9 2 C-8.67 1.01 -8.34 0.02 -8 -1 C-4.71293093 -2.47351372 -2.99288606 -1.8171094 0 0 Z " fill="#DB8B71" transform="translate(155,163)"/>
<path d="M0 0 C1.32 0.33 2.64 0.66 4 1 C4.33 3.31 4.66 5.62 5 8 C2.5 6.25 2.5 6.25 0 4 C0 2.68 0 1.36 0 0 Z " fill="#17AB82" transform="translate(145,222)"/>
<path d="M0 0 C0.66 0.33 1.32 0.66 2 1 C0.90241493 1.84198307 -0.20335317 2.67330671 -1.3125 3.5 C-1.92738281 3.9640625 -2.54226562 4.428125 -3.17578125 4.90625 C-5 6 -5 6 -8 6 C-8 4.35 -8 2.7 -8 1 C-7.67 1.66 -7.34 2.32 -7 3 C-5.88625 2.484375 -4.7725 1.96875 -3.625 1.4375 C-2.42875 0.963125 -1.2325 0.48875 0 0 Z " fill="#B3B71F" transform="translate(139,199)"/>
<path d="M0 0 C0.66 0 1.32 0 2 0 C1.67 1.98 1.34 3.96 1 6 C0.34 6 -0.32 6 -1 6 C-1.33 7.98 -1.66 9.96 -2 12 C-2.33 12 -2.66 12 -3 12 C-3.34833144 7.12335991 -2.41685712 4.22949995 0 0 Z " fill="#9C3814" transform="translate(121,192)"/>
<path d="M0 0 C2.625 0.375 2.625 0.375 5 1 C5 1.66 5 2.32 5 3 C6.65 3 8.3 3 10 3 C10 3.33 10 3.66 10 4 C8.5629191 4.05422947 7.12524538 4.09289723 5.6875 4.125 C4.88699219 4.14820313 4.08648437 4.17140625 3.26171875 4.1953125 C1 4 1 4 -2 2 C-1.34 1.34 -0.68 0.68 0 0 Z " fill="#A9AC20" transform="translate(154,188)"/>
<path d="M0 0 C0.33 0 0.66 0 1 0 C0.67 3.3 0.34 6.6 0 10 C-0.99 9.34 -1.98 8.68 -3 8 C-1.125 1.125 -1.125 1.125 0 0 Z " fill="#E0B8D6" transform="translate(126,227)"/>
<path d="M0 0 C3.3 0.33 6.6 0.66 10 1 C10 1.33 10 1.66 10 2 C5.545 2.495 5.545 2.495 1 3 C0.67 2.01 0.34 1.02 0 0 Z " fill="#30AE0E" transform="translate(161,215)"/>
<path d="M0 0 C3.73487777 0.4979837 5.81237635 0.87491756 9 3 C9 3.66 9 4.32 9 5 C5.12867972 4.42647107 2.91827204 2.51295648 0 0 Z " fill="#C9E0E9" transform="translate(135,223)"/>
</svg>
